<?xml version="1.0" standalone="no"?>
<!DOCTYPE svg PUBLIC "-//W3C//DTD SVG 20010904//EN"
 "http://www.w3.org/TR/2001/REC-SVG-20010904/DTD/svg10.dtd">
<svg version="1.0" xmlns="http://www.w3.org/2000/svg"
 width="512.000000pt" height="512.000000pt" viewBox="0 0 512.000000 512.000000"
 preserveAspectRatio="xMidYMid meet">

<g transform="translate(0.000000,512.000000) scale(0.100000,-0.100000)" stroke="none" fill="#FFF">
<path d="M2405 5029 c-101 -15 -235 -57 -334 -105 -76 -38 -110 -62 -170 -123
-51 -51 -92 -82 -126 -96 -290 -119 -484 -409 -556 -830 -28 -166 -30 -431 -5
-611 l17 -121 -33 -53 c-32 -52 -33 -57 -33 -159 0 -96 3 -111 28 -163 16 -32
49 -76 75 -100 41 -37 53 -56 81 -138 72 -203 189 -404 362 -620 104 -130 119
-159 119 -228 0 -92 58 -129 184 -119 39 3 80 8 91 12 12 4 2 -11 -25 -35 -30
-28 -99 -68 -206 -120 -290 -140 -468 -265 -654 -456 -166 -171 -240 -289
-240 -379 1 -136 198 -271 537 -369 708 -203 1653 -176 2274 65 272 105 380
223 339 371 -30 108 -261 368 -455 513 -143 107 -233 160 -429 255 -107 52
-176 92 -206 120 -27 24 -37 39 -25 35 11 -4 52 -9 91 -12 126 -10 184 27 184
119 0 70 15 97 130 243 57 72 125 164 153 205 60 92 166 308 203 413 22 64 37
89 79 130 70 71 97 132 103 232 3 62 0 93 -16 139 -18 54 -19 65 -7 155 55
400 0 767 -161 1081 -103 203 -270 396 -447 518 -99 69 -278 154 -389 186
-172 50 -379 67 -533 45z m-384 -929 c124 -186 407 -439 673 -599 99 -60 105
-65 84 -75 -16 -8 -23 -20 -23 -41 0 -38 22 -43 90 -20 l52 18 111 -49 112
-49 -68 -7 c-103 -9 -166 -41 -202 -101 -34 -56 22 -95 66 -46 10 11 27 25 37
31 16 8 17 7 8 -11 -16 -28 -14 -107 4 -140 31 -60 127 -65 169 -8 26 36 28
122 3 160 -23 35 -12 34 83 -3 41 -17 81 -30 88 -30 23 0 24 29 3 59 l-22 30
88 -30 c48 -16 105 -34 126 -40 34 -9 37 -12 37 -47 0 -66 -40 -308 -69 -426
-57 -222 -141 -384 -271 -516 -92 -94 -213 -179 -369 -259 -233 -119 -309
-119 -542 0 -366 188 -538 392 -634 751 -58 215 -90 518 -74 690 20 209 104
441 240 666 42 69 131 194 135 189 1 -1 30 -45 65 -97z m-526 -972 c2 -2 7
-39 11 -82 l7 -79 -26 7 c-73 18 -113 18 -131 1 -35 -35 -11 -60 65 -70 29 -4
57 -16 77 -33 28 -24 35 -39 52 -126 11 -54 20 -100 20 -103 0 -14 -121 6
-165 27 -108 52 -165 143 -165 264 0 131 83 212 208 202 24 -2 45 -5 47 -8z
m2308 -23 c52 -36 77 -90 77 -168 0 -124 -56 -214 -165 -267 -50 -24 -165 -40
-165 -23 0 28 43 200 53 212 18 22 88 51 123 51 37 0 58 21 49 49 -9 28 -43
35 -106 22 -29 -6 -54 -9 -57 -7 -2 3 -1 36 3 74 l7 69 36 -8 c28 -6 41 -4 52
6 21 22 50 18 93 -10z m-1243 -1370 c86 0 103 3 183 36 l87 36 6 -26 c30 -147
56 -204 128 -280 l56 -57 -28 -21 c-225 -167 -639 -167 -864 0 l-28 21 56 57
c72 76 98 133 128 280 l6 26 87 -36 c80 -33 97 -36 183 -36z m-485 -371 c106
-77 291 -144 396 -144 78 0 83 -5 50 -53 -54 -79 -253 -257 -286 -257 -42 0
-276 220 -352 332 -26 37 -44 70 -42 72 5 5 171 84 179 85 3 1 28 -15 55 -35z
m1123 -9 c45 -21 82 -41 82 -45 0 -3 -20 -35 -44 -70 -80 -115 -309 -330 -351
-330 -33 0 -231 178 -286 257 -33 48 -28 53 50 53 105 0 291 67 396 144 28 20
55 34 60 32 6 -2 47 -21 93 -41z"/>
<path d="M1882 3499 c-59 -11 -156 -56 -182 -84 -18 -19 -20 -27 -11 -44 16
-29 35 -26 113 13 118 60 256 58 436 -6 98 -34 126 -34 130 3 4 33 -6 41 -103
73 -148 51 -277 66 -383 45z" />
<path d="M1925 3259 c-60 -21 -135 -80 -135 -106 0 -26 30 -24 109 6 98 38
106 38 84 4 -25 -38 -23 -124 3 -160 42 -57 138 -52 169 8 17 33 20 112 5 140
-16 29 2 23 35 -11 39 -40 78 -38 83 3 3 23 -5 37 -37 67 -73 69 -199 89 -316
49z" />
<path d="M2475 2692 c-3 -3 -5 -16 -5 -28 0 -32 37 -54 90 -54 58 0 92 23 88
58 -3 27 -4 27 -85 28 -46 0 -85 -1 -88 -4z" />
<path d="M2380 2489 c-23 -43 3 -61 115 -79 69 -11 176 0 225 23 29 14 38 48
16 66 -11 9 -31 8 -95 -4 -74 -15 -87 -16 -159 -1 -97 20 -89 20 -102 -5z" />
</g>
</svg>
